<svg width="48" height="48" viewBox="0 0 48 48" fill="none" xmlns="http://www.w3.org/2000/svg">
<path d="M14 16H8C5.8 16 4 14.2 4 12V8C4 5.8 5.8 4 8 4H14C16.2 4 18 5.8 18 8V12C18 14.2 16.2 16 14 16Z" fill="#6FDA44"/>
<path d="M41.6 14H34.4C33.08 14 32 12.92 32 11.6V8.40002C32 7.08002 33.08 6 34.4 6H41.6C42.92 6 44 7.08002 44 8.40002V11.6C44 12.92 42.92 14 41.6 14Z" fill="#6FDA44"/>
<path d="M41.6 29H34.4C33.08 29 32 27.92 32 26.6V23.4C32 22.08 33.08 21 34.4 21H41.6C42.92 21 44 22.08 44 23.4V26.6C44 27.92 42.92 29 41.6 29Z" fill="#6FDA44"/>
<path opacity="0.37" d="M32 26.5C32.82 26.5 33.5 25.82 33.5 25C33.5 24.18 32.82 23.5 32 23.5H26.5V11.5H32C32.82 11.5 33.5 10.82 33.5 10C33.5 9.18 32.82 8.5 32 8.5H18C17.18 8.5 16.5 9.18 16.5 10C16.5 10.82 17.18 11.5 18 11.5H23.5V36C23.5 39.04 25.96 41.5 29 41.5H32C32.82 41.5 33.5 40.82 33.5 40C33.5 39.18 32.82 38.5 32 38.5H29C27.62 38.5 26.5 37.38 26.5 36V26.5H32Z" fill="#6FDA44"/>
<path d="M41.6 44H34.4C33.08 44 32 42.92 32 41.6V38.4C32 37.08 33.08 36 34.4 36H41.6C42.92 36 44 37.08 44 38.4V41.6C44 42.92 42.92 44 41.6 44Z" fill="#6FDA44"/>
</svg>
