<svg width="48" height="48" viewBox="0 0 48 48" fill="none" xmlns="http://www.w3.org/2000/svg">
<path d="M25.0391 3H23.0391C21.3791 3 20.0391 4.34 20.0391 6V8C20.0391 9.66 21.3791 11 23.0391 11H25.0391C26.6991 11 28.0391 9.66 28.0391 8V6C28.0391 4.34 26.6991 3 25.0391 3Z" fill="#6FDA44"/>
<path d="M8.53906 21.3398H6.53906C4.87906 21.3398 3.53906 22.6798 3.53906 24.3398V26.3398C3.53906 27.9998 4.87906 29.3398 6.53906 29.3398H8.53906C10.1991 29.3398 11.5391 27.9998 11.5391 26.3398V24.3398C11.5391 22.6798 10.1791 21.3398 8.53906 21.3398Z" fill="#6FDA44"/>
<path d="M41.459 21.3398H39.459C37.799 21.3398 36.459 22.6798 36.459 24.3398V26.3398C36.459 27.9998 37.799 29.3398 39.459 29.3398H41.459C43.119 29.3398 44.459 27.9998 44.459 26.3398V24.3398C44.459 22.6798 43.119 21.3398 41.459 21.3398Z" fill="#6FDA44"/>
<path d="M7.5 23.8401C6.68 23.8401 6 23.1601 6 22.3401C6 13.8001 12.4 6.62016 20.88 5.62016C21.68 5.54016 22.44 6.12011 22.54 6.94011C22.64 7.76011 22.04 8.50014 21.22 8.60014C14.26 9.42014 9 15.3201 9 22.3401C9 23.1601 8.32 23.8401 7.5 23.8401Z" fill="#6FDA44"/>
<path d="M40.5 23.8401C39.68 23.8401 39 23.1601 39 22.3401C39 15.3601 33.78 9.4601 26.86 8.6201C26.04 8.5201 25.46 7.78006 25.56 6.96006C25.66 6.14006 26.42 5.56014 27.24 5.66014C35.66 6.68014 42.02 13.8601 42.02 22.3601C42 23.1601 41.34 23.8401 40.5 23.8401Z" fill="#6FDA44"/>
<path d="M26.5796 44.0203H21.4397C19.5997 44.0203 18.2396 42.5402 18.5796 40.9402L19.4197 37.2402H28.5997L29.4396 40.9402C29.8196 42.6402 28.5396 44.0203 26.5796 44.0203Z" fill="#6FDA44"/>
<path opacity="0.4" d="M32.1396 34.1002L28.5996 37.2402H19.4196L15.8796 34.1002C13.8196 32.4202 13.8196 31.1202 15.3796 29.1402L21.6196 21.2602C22.0596 20.7202 22.5596 20.3403 23.0996 20.1603C23.6796 19.9603 24.3196 19.9603 24.8996 20.1603C25.4396 20.3603 25.9396 20.7202 26.3796 21.2602L32.6196 29.1402C34.1796 31.1202 34.1196 32.3602 32.1396 34.1002Z" fill="#6FDA44"/>
</svg>
