<svg width="48" height="48" viewBox="0 0 48 48" fill="none" xmlns="http://www.w3.org/2000/svg">
<path opacity="0.4" d="M34.056 0H13.944C5.208 0 0 5.208 0 13.944V34.056C0 42.792 5.208 48 13.944 48H34.056C42.792 48 48 42.792 48 34.056V13.944C48 5.208 42.792 0 34.056 0Z" fill="#6FDA44"/>
<path d="M39.1434 16.488C39.1434 17.472 38.3514 18.288 37.3434 18.288H24.7434C23.7594 18.288 22.9434 17.472 22.9434 16.488C22.9434 15.504 23.7594 14.688 24.7434 14.688H37.3434C38.3514 14.688 39.1434 15.504 39.1434 16.488Z" fill="#6FDA44"/>
<path d="M19.1278 14.1602L13.7277 19.5602C13.3677 19.9202 12.9118 20.0882 12.4558 20.0882C11.9998 20.0882 11.5198 19.9202 11.1838 19.5602L9.38375 17.7602C8.66375 17.0642 8.66375 15.9122 9.38375 15.2162C10.0798 14.5202 11.2078 14.5202 11.9278 15.2162L12.4558 15.7442L16.5838 11.6162C17.2797 10.9202 18.4078 10.9202 19.1278 11.6162C19.8238 12.3122 19.8238 13.4642 19.1278 14.1602Z" fill="#6FDA44"/>
<path d="M39.1434 33.2878C39.1434 34.2718 38.3514 35.0878 37.3434 35.0878H24.7434C23.7594 35.0878 22.9434 34.2718 22.9434 33.2878C22.9434 32.3038 23.7594 31.4878 24.7434 31.4878H37.3434C38.3514 31.4878 39.1434 32.3038 39.1434 33.2878Z" fill="#6FDA44"/>
<path d="M19.1278 30.96L13.7277 36.36C13.3677 36.72 12.9118 36.888 12.4558 36.888C11.9998 36.888 11.5198 36.72 11.1838 36.36L9.38375 34.56C8.66375 33.864 8.66375 32.712 9.38375 32.016C10.0798 31.32 11.2078 31.32 11.9278 32.016L12.4558 32.544L16.5838 28.416C17.2797 27.72 18.4078 27.72 19.1278 28.416C19.8238 29.112 19.8238 30.264 19.1278 30.96Z" fill="#6FDA44"/>
</svg>
