<svg width="48" height="48" viewBox="0 0 48 48" fill="none" xmlns="http://www.w3.org/2000/svg">
<path opacity="0.4" d="M30.02 29.4997V43.9797L6.02002 44.0197V29.4997L6 26.4997V14.1397C6 12.7997 6.68003 11.5597 7.78003 10.8197L15.78 5.47969C17.12 4.57969 18.88 4.57969 20.22 5.47969L28.22 10.8197C29.34 11.5597 30 12.7997 30 14.1397V26.4997L30.02 29.4997Z" fill="#6FDA44"/>
<path d="M44 42.5002H41.46V36.5002C43.36 35.8802 44.74 34.1002 44.74 32.0002V28.0002C44.74 25.3802 42.6 23.2402 39.98 23.2402C37.36 23.2402 35.22 25.3802 35.22 28.0002V32.0002C35.22 34.0802 36.5799 35.8402 38.4399 36.4802V42.5002H4C3.18 42.5002 2.5 43.1802 2.5 44.0002C2.5 44.8202 3.18 45.5002 4 45.5002H39.86C39.9 45.5002 39.92 45.5203 39.96 45.5203C40 45.5203 40.0201 45.5002 40.0601 45.5002H44C44.82 45.5002 45.5 44.8202 45.5 44.0002C45.5 43.1802 44.82 42.5002 44 42.5002Z" fill="#6FDA44"/>
<path d="M30.02 29.5H6.02002L6 26.5H30L30.02 29.5Z" fill="#6FDA44"/>
<path d="M18 45.5C17.18 45.5 16.5 44.82 16.5 44V36.5C16.5 35.68 17.18 35 18 35C18.82 35 19.5 35.68 19.5 36.5V44C19.5 44.82 18.82 45.5 18 45.5Z" fill="#6FDA44"/>
<path d="M18 21.5C19.933 21.5 21.5 19.933 21.5 18C21.5 16.067 19.933 14.5 18 14.5C16.067 14.5 14.5 16.067 14.5 18C14.5 19.933 16.067 21.5 18 21.5Z" fill="#6FDA44"/>
</svg>
