<svg width="48" height="48" viewBox="0 0 48 48" fill="none" xmlns="http://www.w3.org/2000/svg">
<path opacity="0.4" d="M41 20.38H35.22C30.48 20.38 26.62 16.52 26.62 11.78V6C26.62 4.9 25.72 4 24.62 4H16.14C9.98 4 5 8.00001 5 15.14V32.86C5 40 9.98 44 16.14 44H31.86C38.02 44 43 40 43 32.86V22.38C43 21.28 42.1 20.38 41 20.38Z" fill="#6FDA44"/>
<path d="M31.5994 4.41999C30.7794 3.59999 29.3594 4.15997 29.3594 5.29997V12.28C29.3594 15.2 31.8394 17.62 34.8594 17.62C36.7594 17.64 39.3994 17.64 41.6594 17.64C42.7994 17.64 43.3994 16.3 42.5994 15.5C39.7194 12.6 34.5594 7.37999 31.5994 4.41999Z" fill="#6FDA44"/>
<path d="M29.5191 38.5201C24.8191 38.8601 24.8191 45.6601 29.5191 46.0001H40.6391C41.9791 46.0001 43.2991 45.5001 44.2791 44.6001C47.5791 41.7201 45.8191 35.9601 41.4791 35.4201C39.9191 26.0401 26.3591 29.6001 29.5591 38.5401" fill="#6FDA44"/>
</svg>
