<svg width="48" height="48" viewBox="0 0 48 48" fill="none" xmlns="http://www.w3.org/2000/svg">
<path opacity="0.4" d="M24.0002 34.7002C25.8007 34.7002 27.2602 33.2406 27.2602 31.4402C27.2602 29.6397 25.8007 28.1802 24.0002 28.1802C22.1998 28.1802 20.7402 29.6397 20.7402 31.4402C20.7402 33.2406 22.1998 34.7002 24.0002 34.7002Z" fill="#6FDA44"/>
<path d="M33.3 18.8799H14.7C6.5 18.8799 4 21.3799 4 29.5799V33.2999C4 41.4999 6.5 43.9999 14.7 43.9999H33.3C41.5 43.9999 44 41.4999 44 33.2999V29.5799C44 21.3799 41.5 18.8799 33.3 18.8799ZM24 37.4799C20.66 37.4799 17.96 34.7599 17.96 31.4399C17.96 28.1199 20.66 25.3999 24 25.3999C27.34 25.3999 30.04 28.1199 30.04 31.4399C30.04 34.7599 27.34 37.4799 24 37.4799Z" fill="#6FDA44"/>
<path opacity="0.4" d="M14.2395 18.9V16.56C14.2395 10.7 15.8995 6.8 23.9995 6.8C32.0995 6.8 33.7595 10.7 33.7595 16.56V18.9C34.7795 18.92 35.6995 18.96 36.5595 19.08V16.56C36.5595 11.16 35.2595 4 23.9995 4C12.7395 4 11.4395 11.16 11.4395 16.56V19.06C12.2795 18.96 13.2195 18.9 14.2395 18.9Z" fill="#6FDA44"/>
</svg>
