<svg width="48" height="48" viewBox="0 0 48 48" fill="none" xmlns="http://www.w3.org/2000/svg">
<path opacity="0.4" d="M21.9196 4.21977L10.9196 8.33977C8.81961 9.13977 7.09961 11.6198 7.09961 13.8798V30.0798C7.09961 31.6998 8.15961 33.8398 9.45961 34.7998L20.4596 43.0198C22.3996 44.4798 25.5796 44.4798 27.5196 43.0198L38.5196 34.7998C39.8196 33.8198 40.8796 31.6998 40.8796 30.0798V13.8798C40.8796 11.6398 39.1596 9.13977 37.0596 8.35977L26.0596 4.23977C24.9396 3.79977 23.0596 3.79977 21.9196 4.21977Z" fill="#6FDA44"/>
<path d="M24 32.5C18.76 32.5 14.5 28.24 14.5 23C14.5 17.76 18.76 13.5 24 13.5C29.24 13.5 33.5 17.76 33.5 23C33.5 28.24 29.24 32.5 24 32.5ZM24 16.5C20.42 16.5 17.5 19.42 17.5 23C17.5 26.58 20.42 29.5 24 29.5C27.58 29.5 30.5 26.58 30.5 23C30.5 19.42 27.58 16.5 24 16.5Z" fill="#6FDA44"/>
<path d="M21.9998 26.5C21.4998 26.5 20.9998 26.24 20.7198 25.78C20.2998 25.06 20.5198 24.14 21.2398 23.72L22.7598 22.8C22.9198 22.7 22.9998 22.54 22.9998 22.38V20.52C22.9998 19.7 23.6798 19.02 24.4998 19.02C25.3198 19.02 25.9998 19.68 25.9998 20.5V22.36C25.9998 23.58 25.3398 24.74 24.2998 25.36L22.7598 26.28C22.5398 26.44 22.2598 26.5 21.9998 26.5Z" fill="#6FDA44"/>
</svg>
