<svg width="48" height="48" viewBox="0 0 48 48" fill="none" xmlns="http://www.w3.org/2000/svg">
<path opacity="0.4" d="M33.5995 4H12.4195C7.77953 4 4.01953 7.76 4.01953 12.38V24.74V25.12C4.01953 29.76 7.77953 33.5 12.3995 33.5H19.5995C20.6995 33.5 21.5995 34.4 21.5995 35.5V37.14C21.5995 38.24 20.6995 39.14 19.5995 39.14H15.0995C14.3195 39.14 13.6795 39.78 13.6795 40.56C13.6795 41.34 14.3195 41.98 15.0995 41.98H30.9595C31.7395 41.98 32.3795 41.34 32.3795 40.56C32.3795 39.78 31.7395 39.14 30.9595 39.14H26.4595C25.3595 39.14 24.4595 38.24 24.4595 37.14V35.5C24.4595 34.4 25.3595 33.5 26.4595 33.5H33.5995C38.2395 33.5 41.9795 29.74 41.9795 25.12V24.74V12.38C41.9795 7.76 38.2195 4 33.5995 4Z" fill="#6FDA44"/>
<path d="M39.2805 19H28.7005C25.2405 19 23.9805 20.26 23.9805 23.76V39.22C23.9805 42.74 25.2205 43.98 28.7005 43.98H39.2805C42.7405 43.98 44.0005 42.72 44.0005 39.22V23.76C44.0005 20.24 42.7605 19 39.2805 19ZM34.0005 40.64C32.7805 40.64 31.8005 39.66 31.8005 38.44C31.8005 37.22 32.7805 36.24 34.0005 36.24C35.2205 36.24 36.2005 37.22 36.2005 38.44C36.2005 39.66 35.2205 40.64 34.0005 40.64Z" fill="#6FDA44"/>
<path opacity="0.4" d="M36.2008 38.4402C36.2008 39.6602 35.2208 40.6402 34.0008 40.6402C32.7808 40.6402 31.8008 39.6602 31.8008 38.4402C31.8008 37.2202 32.7808 36.2402 34.0008 36.2402C35.2208 36.2402 36.2008 37.2402 36.2008 38.4402Z" fill="#6FDA44"/>
</svg>
