<svg width="48" height="48" viewBox="0 0 48 48" fill="none" xmlns="http://www.w3.org/2000/svg">
<path opacity="0.4" d="M32.38 4H15.62C8.34 4 4 8.34 4 15.62V32.36C4 39.66 8.34 44 15.62 44H32.36C39.64 44 43.98 39.66 43.98 32.38V15.62C44 8.34 39.66 4 32.38 4Z" fill="#6FDA44"/>
<path d="M13.7598 37.8002C12.9398 37.8002 12.2598 37.1202 12.2598 36.3002V32.1602C12.2598 31.3402 12.9398 30.6602 13.7598 30.6602C14.5798 30.6602 15.2598 31.3402 15.2598 32.1602V36.3002C15.2598 37.1402 14.5798 37.8002 13.7598 37.8002Z" fill="#6FDA44"/>
<path d="M24 37.8C23.18 37.8 22.5 37.12 22.5 36.3V28C22.5 27.18 23.18 26.5 24 26.5C24.82 26.5 25.5 27.18 25.5 28V36.3C25.5 37.14 24.82 37.8 24 37.8Z" fill="#6FDA44"/>
<path d="M34.2402 37.7999C33.4202 37.7999 32.7402 37.1199 32.7402 36.2999V23.8599C32.7402 23.0399 33.4202 22.3599 34.2402 22.3599C35.0602 22.3599 35.7402 23.0399 35.7402 23.8599V36.2999C35.7402 37.1399 35.0802 37.7999 34.2402 37.7999Z" fill="#6FDA44"/>
<path d="M35.74 11.6402C35.74 11.5402 35.7 11.4202 35.68 11.3202C35.66 11.2402 35.64 11.1402 35.62 11.0602C35.58 10.9802 35.52 10.9202 35.48 10.8402C35.42 10.7602 35.36 10.6602 35.28 10.6002C35.26 10.5802 35.26 10.5602 35.24 10.5602C35.18 10.5202 35.12 10.5002 35.06 10.4602C34.98 10.4002 34.88 10.3402 34.78 10.3002C34.68 10.2602 34.58 10.2602 34.48 10.2402C34.4 10.2202 34.34 10.2002 34.26 10.2002H28.4C27.58 10.2002 26.9 10.8802 26.9 11.7002C26.9 12.5202 27.58 13.2002 28.4 13.2002H30.9C26.14 18.2002 20.14 21.7202 13.4 23.4202C12.6 23.6202 12.1 24.4402 12.3 25.2402C12.46 25.9202 13.08 26.3802 13.76 26.3802C13.88 26.3802 14 26.3602 14.12 26.3402C21.26 24.5602 27.64 20.8602 32.74 15.6202V17.5602C32.74 18.3802 33.42 19.0602 34.24 19.0602C35.06 19.0602 35.74 18.3802 35.74 17.5602V11.7002C35.74 11.6802 35.74 11.6602 35.74 11.6402Z" fill="#6FDA44"/>
</svg>
