<svg width="48" height="48" viewBox="0 0 48 48" fill="none" xmlns="http://www.w3.org/2000/svg">
<path opacity="0.4" d="M43 16.74V31.64C43 31.94 42.9 32.24 42.64 32.5C39.74 35.42 34.58 40.62 31.62 43.6C31.36 43.88 31.02 44 30.68 44H14.74C9.36 44 5 39.64 5 34.26V16.74C5 11.36 9.36 7 14.74 7H33.26C38.64 7 43 11.36 43 16.74Z" fill="#6FDA44"/>
<path d="M16.5801 12.58C15.7401 12.58 15.0801 11.9 15.0801 11.08V5.5C15.0801 4.68 15.7401 4 16.5801 4C17.4201 4 18.0801 4.68 18.0801 5.5V11.06C18.0801 11.9 17.4201 12.58 16.5801 12.58Z" fill="#6FDA44"/>
<path d="M31.4199 12.58C30.5799 12.58 29.9199 11.9 29.9199 11.08V5.5C29.9199 4.66 30.5999 4 31.4199 4C32.2599 4 32.9199 4.68 32.9199 5.5V11.06C32.9199 11.9 32.2599 12.58 31.4199 12.58Z" fill="#6FDA44"/>
<path d="M29.5607 25.4199H14.7207C13.8807 25.4199 13.2207 24.7399 13.2207 23.9199C13.2207 23.0999 13.9007 22.4199 14.7207 22.4199H29.5607C30.4007 22.4199 31.0607 23.0999 31.0607 23.9199C31.0607 24.7399 30.4007 25.4199 29.5607 25.4199Z" fill="#6FDA44"/>
<path d="M24.0007 32.8398H14.7207C13.8807 32.8398 13.2207 32.1598 13.2207 31.3398C13.2207 30.4998 13.9007 29.8398 14.7207 29.8398H24.0007C24.8407 29.8398 25.5007 30.5198 25.5007 31.3398C25.5007 32.1598 24.8407 32.8398 24.0007 32.8398Z" fill="#6FDA44"/>
<path d="M43.0009 31.6399C43.0009 31.9399 42.9009 32.2399 42.6409 32.4999C39.7409 35.4199 34.5809 40.6199 31.6209 43.5999C31.3609 43.8799 31.0209 43.9999 30.6809 43.9999C30.0209 43.9999 29.3809 43.4799 29.3809 42.7199V35.7199C29.3809 32.7999 31.8609 30.3799 34.9009 30.3799C36.8009 30.3599 39.4409 30.3599 41.7009 30.3599C42.4809 30.3599 43.0009 30.9799 43.0009 31.6399Z" fill="#6FDA44"/>
</svg>
