<svg width="32" height="32" viewBox="0 0 32 32" fill="none" xmlns="http://www.w3.org/2000/svg">
<path opacity="0.4" d="M27.4935 11.2668C26.0935 5.10683 20.7201 2.3335 16.0001 2.3335C16.0001 2.3335 16.0001 2.3335 15.9868 2.3335C11.2801 2.3335 5.89346 5.0935 4.49346 11.2535C2.93346 18.1335 7.14679 23.9602 10.9601 27.6268C12.3735 28.9868 14.1868 29.6668 16.0001 29.6668C17.8135 29.6668 19.6268 28.9868 21.0268 27.6268C24.8401 23.9602 29.0535 18.1468 27.4935 11.2668Z" fill="#6FDA44"/>
<path d="M16.0008 17.9469C18.3204 17.9469 20.2008 16.0665 20.2008 13.7469C20.2008 11.4273 18.3204 9.54688 16.0008 9.54688C13.6812 9.54688 11.8008 11.4273 11.8008 13.7469C11.8008 16.0665 13.6812 17.9469 16.0008 17.9469Z" fill="#6FDA44"/>
</svg>
