<svg width="264" height="54" viewBox="0 0 264 54" fill="none" xmlns="http://www.w3.org/2000/svg">
<path d="M74.136 35.24C72.648 35.24 71.328 34.952 70.176 34.376C69.04 33.784 68.144 32.976 67.488 31.952C66.832 30.928 66.504 29.752 66.504 28.424C66.504 27.096 66.832 25.92 67.488 24.896C68.144 23.872 69.04 23.072 70.176 22.496C71.328 21.92 72.648 21.632 74.136 21.632C75.624 21.632 76.944 21.92 78.096 22.496C79.248 23.072 80.144 23.872 80.784 24.896C81.44 25.92 81.768 27.096 81.768 28.424C81.768 29.752 81.44 30.928 80.784 31.952C80.144 32.976 79.248 33.784 78.096 34.376C76.944 34.952 75.624 35.24 74.136 35.24ZM74.136 31.016C74.536 31.016 74.896 30.92 75.216 30.728C75.536 30.536 75.792 30.248 75.984 29.864C76.176 29.464 76.272 28.984 76.272 28.424C76.272 27.848 76.176 27.376 75.984 27.008C75.792 26.624 75.536 26.336 75.216 26.144C74.896 25.952 74.536 25.856 74.136 25.856C73.736 25.856 73.376 25.952 73.056 26.144C72.736 26.336 72.48 26.624 72.288 27.008C72.096 27.376 72 27.848 72 28.424C72 28.984 72.096 29.464 72.288 29.864C72.48 30.248 72.736 30.536 73.056 30.728C73.376 30.92 73.736 31.016 74.136 31.016ZM88.9376 35.24C87.8976 35.24 86.9536 35.032 86.1056 34.616C85.2736 34.184 84.6176 33.52 84.1376 32.624C83.6576 31.712 83.4176 30.544 83.4176 29.12V21.872H88.8416V28.184C88.8416 29.112 88.9936 29.76 89.2976 30.128C89.6016 30.496 90.0176 30.68 90.5456 30.68C90.8656 30.68 91.1616 30.6 91.4336 30.44C91.7216 30.264 91.9536 29.984 92.1296 29.6C92.3056 29.2 92.3936 28.68 92.3936 28.04V21.872H97.8176V35H92.6576V31.208L93.6896 32.24C93.2256 33.264 92.5616 34.024 91.6976 34.52C90.8496 35 89.9296 35.24 88.9376 35.24ZM100.223 35V21.872H105.383V25.832L104.543 24.704C104.943 23.68 105.583 22.912 106.463 22.4C107.343 21.888 108.399 21.632 109.631 21.632V26.432C109.391 26.4 109.175 26.376 108.983 26.36C108.807 26.344 108.623 26.336 108.431 26.336C107.615 26.336 106.943 26.552 106.415 26.984C105.903 27.4 105.647 28.128 105.647 29.168V35H100.223ZM119.673 35.384C118.329 35.384 117.081 35.176 115.929 34.76C114.793 34.328 113.801 33.72 112.953 32.936C112.121 32.152 111.473 31.224 111.009 30.152C110.545 29.08 110.313 27.896 110.313 26.6C110.313 25.304 110.545 24.12 111.009 23.048C111.473 21.976 112.121 21.048 112.953 20.264C113.801 19.48 114.793 18.88 115.929 18.464C117.081 18.032 118.329 17.816 119.673 17.816C121.321 17.816 122.777 18.104 124.041 18.68C125.321 19.256 126.377 20.088 127.209 21.176L123.633 24.368C123.137 23.744 122.585 23.264 121.977 22.928C121.385 22.576 120.713 22.4 119.961 22.4C119.369 22.4 118.833 22.496 118.353 22.688C117.873 22.88 117.457 23.16 117.105 23.528C116.769 23.896 116.505 24.344 116.313 24.872C116.121 25.384 116.025 25.96 116.025 26.6C116.025 27.24 116.121 27.824 116.313 28.352C116.505 28.864 116.769 29.304 117.105 29.672C117.457 30.04 117.873 30.32 118.353 30.512C118.833 30.704 119.369 30.8 119.961 30.8C120.713 30.8 121.385 30.632 121.977 30.296C122.585 29.944 123.137 29.456 123.633 28.832L127.209 32.024C126.377 33.096 125.321 33.928 124.041 34.52C122.777 35.096 121.321 35.384 119.673 35.384ZM135.261 35.24C133.773 35.24 132.453 34.952 131.301 34.376C130.165 33.784 129.269 32.976 128.613 31.952C127.957 30.928 127.629 29.752 127.629 28.424C127.629 27.096 127.957 25.92 128.613 24.896C129.269 23.872 130.165 23.072 131.301 22.496C132.453 21.92 133.773 21.632 135.261 21.632C136.749 21.632 138.069 21.92 139.221 22.496C140.373 23.072 141.269 23.872 141.909 24.896C142.565 25.92 142.893 27.096 142.893 28.424C142.893 29.752 142.565 30.928 141.909 31.952C141.269 32.976 140.373 33.784 139.221 34.376C138.069 34.952 136.749 35.24 135.261 35.24ZM135.261 31.016C135.661 31.016 136.021 30.92 136.341 30.728C136.661 30.536 136.917 30.248 137.109 29.864C137.301 29.464 137.397 28.984 137.397 28.424C137.397 27.848 137.301 27.376 137.109 27.008C136.917 26.624 136.661 26.336 136.341 26.144C136.021 25.952 135.661 25.856 135.261 25.856C134.861 25.856 134.501 25.952 134.181 26.144C133.861 26.336 133.605 26.624 133.413 27.008C133.221 27.376 133.125 27.848 133.125 28.424C133.125 28.984 133.221 29.464 133.413 29.864C133.605 30.248 133.861 30.536 134.181 30.728C134.501 30.92 134.861 31.016 135.261 31.016ZM161.967 21.632C162.959 21.632 163.847 21.84 164.631 22.256C165.431 22.656 166.055 23.288 166.503 24.152C166.967 25.016 167.199 26.136 167.199 27.512V35H161.775V28.448C161.775 27.632 161.639 27.056 161.367 26.72C161.095 26.368 160.743 26.192 160.311 26.192C159.991 26.192 159.703 26.272 159.447 26.432C159.191 26.592 158.983 26.848 158.823 27.2C158.679 27.536 158.607 28 158.607 28.592V35H153.183V28.448C153.183 27.632 153.055 27.056 152.799 26.72C152.543 26.368 152.183 26.192 151.719 26.192C151.399 26.192 151.111 26.272 150.855 26.432C150.599 26.592 150.391 26.848 150.231 27.2C150.087 27.536 150.015 28 150.015 28.592V35H144.591V21.872H149.751V25.64L148.695 24.584C149.191 23.592 149.855 22.856 150.687 22.376C151.519 21.88 152.447 21.632 153.471 21.632C154.623 21.632 155.639 21.936 156.519 22.544C157.415 23.136 158.015 24.08 158.319 25.376L156.663 25.112C157.143 24.024 157.839 23.176 158.751 22.568C159.679 21.944 160.751 21.632 161.967 21.632ZM178.312 35.24C177.176 35.24 176.232 35 175.48 34.52C174.744 34.024 174.2 33.28 173.848 32.288C173.496 31.28 173.32 30 173.32 28.448C173.32 26.864 173.48 25.576 173.8 24.584C174.136 23.576 174.672 22.832 175.408 22.352C176.144 21.872 177.112 21.632 178.312 21.632C179.464 21.632 180.52 21.912 181.48 22.472C182.44 23.016 183.208 23.8 183.784 24.824C184.36 25.832 184.648 27.04 184.648 28.448C184.648 29.856 184.36 31.072 183.784 32.096C183.208 33.104 182.44 33.88 181.48 34.424C180.52 34.968 179.464 35.24 178.312 35.24ZM169.552 39.656V21.872H174.712V23.648L174.736 28.448L174.976 33.248V39.656H169.552ZM177.016 31.016C177.416 31.016 177.776 30.92 178.096 30.728C178.416 30.536 178.672 30.248 178.864 29.864C179.056 29.48 179.152 29.008 179.152 28.448C179.152 27.872 179.056 27.392 178.864 27.008C178.672 26.624 178.416 26.336 178.096 26.144C177.776 25.952 177.416 25.856 177.016 25.856C176.616 25.856 176.256 25.952 175.936 26.144C175.616 26.336 175.36 26.624 175.168 27.008C174.976 27.392 174.88 27.872 174.88 28.448C174.88 29.008 174.976 29.48 175.168 29.864C175.36 30.248 175.616 30.536 175.936 30.728C176.256 30.92 176.616 31.016 177.016 31.016ZM186.356 35V17.192H191.78V35H186.356ZM194.184 35V21.872H199.608V35H194.184ZM196.896 20.816C195.904 20.816 195.112 20.552 194.52 20.024C193.928 19.496 193.632 18.84 193.632 18.056C193.632 17.272 193.928 16.616 194.52 16.088C195.112 15.56 195.904 15.296 196.896 15.296C197.888 15.296 198.68 15.544 199.272 16.04C199.864 16.536 200.16 17.176 200.16 17.96C200.16 18.792 199.864 19.48 199.272 20.024C198.68 20.552 197.888 20.816 196.896 20.816ZM209.957 35V32.672L209.573 32.048V27.632C209.573 26.992 209.373 26.504 208.973 26.168C208.589 25.832 207.957 25.664 207.077 25.664C206.485 25.664 205.885 25.76 205.277 25.952C204.669 26.128 204.149 26.376 203.717 26.696L201.989 23.12C202.757 22.64 203.677 22.272 204.749 22.016C205.821 21.76 206.869 21.632 207.893 21.632C210.149 21.632 211.893 22.136 213.125 23.144C214.373 24.152 214.997 25.752 214.997 27.944V35H209.957ZM206.237 35.24C205.165 35.24 204.269 35.056 203.549 34.688C202.829 34.32 202.285 33.832 201.917 33.224C201.549 32.6 201.365 31.912 201.365 31.16C201.365 30.312 201.581 29.592 202.013 29C202.445 28.408 203.101 27.96 203.98 27.656C204.877 27.352 206.005 27.2 207.365 27.2H210.101V29.816H208.229C207.653 29.816 207.229 29.912 206.957 30.104C206.701 30.28 206.573 30.552 206.573 30.92C206.573 31.224 206.685 31.48 206.909 31.688C207.149 31.88 207.469 31.976 207.868 31.976C208.237 31.976 208.573 31.88 208.877 31.688C209.197 31.48 209.429 31.16 209.573 30.728L210.269 32.336C210.061 33.312 209.621 34.04 208.949 34.52C208.277 35 207.373 35.24 206.237 35.24ZM226.461 21.632C227.469 21.632 228.381 21.84 229.197 22.256C230.013 22.656 230.653 23.288 231.117 24.152C231.597 25.016 231.837 26.136 231.837 27.512V35H226.413V28.448C226.413 27.632 226.269 27.056 225.981 26.72C225.693 26.368 225.301 26.192 224.805 26.192C224.437 26.192 224.093 26.28 223.773 26.456C223.469 26.616 223.221 26.888 223.029 27.272C222.853 27.656 222.765 28.176 222.765 28.832V35H217.341V21.872H222.501V25.712L221.469 24.608C221.981 23.616 222.669 22.872 223.533 22.376C224.413 21.88 225.389 21.632 226.461 21.632ZM241.483 35.24C239.979 35.24 238.643 34.952 237.475 34.376C236.307 33.8 235.387 33 234.715 31.976C234.059 30.936 233.731 29.752 233.731 28.424C233.731 27.096 234.059 25.92 234.715 24.896C235.387 23.872 236.307 23.072 237.475 22.496C238.643 21.92 239.979 21.632 241.483 21.632C243.083 21.632 244.451 21.976 245.587 22.664C246.723 23.352 247.507 24.304 247.939 25.52L243.739 27.584C243.467 26.976 243.131 26.536 242.731 26.264C242.347 25.992 241.923 25.856 241.459 25.856C241.059 25.856 240.683 25.952 240.331 26.144C239.995 26.336 239.723 26.624 239.515 27.008C239.323 27.376 239.227 27.848 239.227 28.424C239.227 29 239.323 29.48 239.515 29.864C239.723 30.248 239.995 30.536 240.331 30.728C240.683 30.92 241.059 31.016 241.459 31.016C241.923 31.016 242.347 30.88 242.731 30.608C243.131 30.336 243.467 29.896 243.739 29.288L247.939 31.352C247.507 32.568 246.723 33.52 245.587 34.208C244.451 34.896 243.083 35.24 241.483 35.24ZM256.323 35.24C254.723 35.24 253.323 34.944 252.123 34.352C250.939 33.76 250.019 32.952 249.363 31.928C248.707 30.888 248.379 29.72 248.379 28.424C248.379 27.096 248.699 25.92 249.339 24.896C249.995 23.872 250.883 23.072 252.003 22.496C253.139 21.92 254.411 21.632 255.819 21.632C257.115 21.632 258.307 21.888 259.395 22.4C260.499 22.912 261.379 23.672 262.035 24.68C262.707 25.688 263.043 26.936 263.043 28.424C263.043 28.616 263.035 28.832 263.019 29.072C263.003 29.296 262.987 29.504 262.971 29.696H252.867V27.08H260.091L258.051 27.776C258.051 27.264 257.955 26.832 257.763 26.48C257.587 26.112 257.339 25.832 257.019 25.64C256.699 25.432 256.315 25.328 255.867 25.328C255.419 25.328 255.027 25.432 254.691 25.64C254.371 25.832 254.123 26.112 253.947 26.48C253.771 26.832 253.683 27.264 253.683 27.776V28.592C253.683 29.152 253.795 29.632 254.019 30.032C254.243 30.432 254.563 30.736 254.979 30.944C255.395 31.136 255.899 31.232 256.491 31.232C257.099 31.232 257.595 31.152 257.979 30.992C258.379 30.832 258.795 30.592 259.227 30.272L262.059 33.128C261.419 33.816 260.627 34.344 259.683 34.712C258.755 35.064 257.635 35.24 256.323 35.24Z" fill="black"/>
<path fill-rule="evenodd" clip-rule="evenodd" d="M26.5753 0C33.53 0 39.8606 2.67313 44.5965 7.0465C42.1505 8.92343 39.677 11.0964 37.2311 13.579C36.818 13.9989 36.4188 14.4257 36.031 14.8594C33.4474 12.7691 30.157 11.5185 26.573 11.5185C18.2599 11.5185 11.5185 18.2599 11.5185 26.573C11.5185 34.8883 18.2599 41.6274 26.573 41.6274C33.4428 41.6274 39.2365 37.0268 41.0423 30.7375H52.8178C50.8193 43.4355 39.8308 53.1459 26.5707 53.1459C11.8948 53.1459 0 41.2488 0 26.573C0 11.8971 11.8971 0.00229453 26.5707 0.00229453L26.5753 0ZM48.0291 10.8944C50.4682 14.2261 52.1524 18.1497 52.8224 22.4084H41.0469C40.8289 21.6443 40.5489 20.9055 40.2185 20.1965L41.0423 19.1524C43.5135 15.9929 45.831 13.228 48.0314 10.8944H48.0291Z" fill="#6FDA44"/>
<path d="M26.8188 22.9501C28.6474 22.9501 30.1298 21.4678 30.1298 19.6391C30.1298 17.8105 28.6474 16.3281 26.8188 16.3281C24.9902 16.3281 23.5078 17.8105 23.5078 19.6391C23.5078 21.4678 24.9902 22.9501 26.8188 22.9501Z" fill="#6FDA44"/>
<path d="M52.2655 3.27441L53.2062 4.6213C49.3491 7.52847 45.0652 11.9959 40.3385 18.0328C35.6117 24.0789 32.0116 29.7189 29.5289 34.9619L27.5258 36.318C25.8646 37.4721 24.738 38.3211 24.1483 38.8855C23.9073 38.0366 23.4003 36.6507 22.6063 34.7233L21.8492 32.9611C20.7684 30.4417 19.7634 28.5762 18.8295 27.367C17.9071 26.1578 16.8631 25.3547 15.709 24.9577C17.657 22.9087 19.4376 21.8831 21.0621 21.8831C22.4457 21.8831 23.9877 23.7669 25.6856 27.5322L26.5162 29.4252C29.5611 24.2854 33.4755 19.2902 38.2482 14.4442C43.03 9.59814 47.6993 5.86953 52.2586 3.27671L52.2655 3.27441Z" fill="#6FDA44"/>
</svg>
