<svg width="264" height="54" viewBox="0 0 264 54" fill="none" xmlns="http://www.w3.org/2000/svg">
<path d="M74.136 35.24C72.648 35.24 71.328 34.952 70.176 34.376C69.04 33.784 68.144 32.976 67.488 31.952C66.832 30.928 66.504 29.752 66.504 28.424C66.504 27.096 66.832 25.92 67.488 24.896C68.144 23.872 69.04 23.072 70.176 22.496C71.328 21.92 72.648 21.632 74.136 21.632C75.624 21.632 76.944 21.92 78.096 22.496C79.248 23.072 80.144 23.872 80.784 24.896C81.44 25.92 81.768 27.096 81.768 28.424C81.768 29.752 81.44 30.928 80.784 31.952C80.144 32.976 79.248 33.784 78.096 34.376C76.944 34.952 75.624 35.24 74.136 35.24ZM74.136 31.016C74.536 31.016 74.896 30.92 75.216 30.728C75.536 30.536 75.792 30.248 75.984 29.864C76.176 29.464 76.272 28.984 76.272 28.424C76.272 27.848 76.176 27.376 75.984 27.008C75.792 26.624 75.536 26.336 75.216 26.144C74.896 25.952 74.536 25.856 74.136 25.856C73.736 25.856 73.376 25.952 73.056 26.144C72.736 26.336 72.48 26.624 72.288 27.008C72.096 27.376 72 27.848 72 28.424C72 28.984 72.096 29.464 72.288 29.864C72.48 30.248 72.736 30.536 73.056 30.728C73.376 30.92 73.736 31.016 74.136 31.016ZM88.9376 35.24C87.8976 35.24 86.9536 35.032 86.1056 34.616C85.2736 34.184 84.6176 33.52 84.1376 32.624C83.6576 31.712 83.4176 30.544 83.4176 29.12V21.872H88.8416V28.184C88.8416 29.112 88.9936 29.76 89.2976 30.128C89.6016 30.496 90.0176 30.68 90.5456 30.68C90.8656 30.68 91.1616 30.6 91.4336 30.44C91.7216 30.264 91.9536 29.984 92.1296 29.6C92.3056 29.2 92.3936 28.68 92.3936 28.04V21.872H97.8176V35H92.6576V31.208L93.6896 32.24C93.2256 33.264 92.5616 34.024 91.6976 34.52C90.8496 35 89.9296 35.24 88.9376 35.24ZM100.223 35V21.872H105.383V25.832L104.543 24.704C104.943 23.68 105.583 22.912 106.463 22.4C107.343 21.888 108.399 21.632 109.631 21.632V26.432C109.391 26.4 109.175 26.376 108.983 26.36C108.807 26.344 108.623 26.336 108.431 26.336C107.615 26.336 106.943 26.552 106.415 26.984C105.903 27.4 105.647 28.128 105.647 29.168V35H100.223ZM119.65 35.384C118.306 35.384 117.058 35.176 115.906 34.76C114.77 34.328 113.778 33.72 112.93 32.936C112.098 32.152 111.45 31.224 110.986 30.152C110.522 29.08 110.29 27.896 110.29 26.6C110.29 25.304 110.522 24.12 110.986 23.048C111.45 21.976 112.098 21.048 112.93 20.264C113.778 19.48 114.77 18.88 115.906 18.464C117.058 18.032 118.306 17.816 119.65 17.816C121.298 17.816 122.754 18.104 124.018 18.68C125.298 19.256 126.354 20.088 127.186 21.176L123.61 24.368C123.114 23.744 122.562 23.264 121.954 22.928C121.362 22.576 120.69 22.4 119.938 22.4C119.346 22.4 118.81 22.496 118.33 22.688C117.85 22.88 117.434 23.16 117.082 23.528C116.746 23.896 116.482 24.344 116.29 24.872C116.098 25.384 116.002 25.96 116.002 26.6C116.002 27.24 116.098 27.824 116.29 28.352C116.482 28.864 116.746 29.304 117.082 29.672C117.434 30.04 117.85 30.32 118.33 30.512C118.81 30.704 119.346 30.8 119.938 30.8C120.69 30.8 121.362 30.632 121.954 30.296C122.562 29.944 123.114 29.456 123.61 28.832L127.186 32.024C126.354 33.096 125.298 33.928 124.018 34.52C122.754 35.096 121.298 35.384 119.65 35.384ZM135.214 35.24C133.726 35.24 132.406 34.952 131.254 34.376C130.118 33.784 129.222 32.976 128.566 31.952C127.91 30.928 127.582 29.752 127.582 28.424C127.582 27.096 127.91 25.92 128.566 24.896C129.222 23.872 130.118 23.072 131.254 22.496C132.406 21.92 133.726 21.632 135.214 21.632C136.702 21.632 138.022 21.92 139.174 22.496C140.326 23.072 141.222 23.872 141.862 24.896C142.518 25.92 142.846 27.096 142.846 28.424C142.846 29.752 142.518 30.928 141.862 31.952C141.222 32.976 140.326 33.784 139.174 34.376C138.022 34.952 136.702 35.24 135.214 35.24ZM135.214 31.016C135.614 31.016 135.974 30.92 136.294 30.728C136.614 30.536 136.87 30.248 137.062 29.864C137.254 29.464 137.35 28.984 137.35 28.424C137.35 27.848 137.254 27.376 137.062 27.008C136.87 26.624 136.614 26.336 136.294 26.144C135.974 25.952 135.614 25.856 135.214 25.856C134.814 25.856 134.454 25.952 134.134 26.144C133.814 26.336 133.558 26.624 133.366 27.008C133.174 27.376 133.078 27.848 133.078 28.424C133.078 28.984 133.174 29.464 133.366 29.864C133.558 30.248 133.814 30.536 134.134 30.728C134.454 30.92 134.814 31.016 135.214 31.016ZM161.92 21.632C162.912 21.632 163.8 21.84 164.584 22.256C165.384 22.656 166.008 23.288 166.456 24.152C166.92 25.016 167.152 26.136 167.152 27.512V35H161.728V28.448C161.728 27.632 161.592 27.056 161.32 26.72C161.048 26.368 160.696 26.192 160.264 26.192C159.944 26.192 159.656 26.272 159.4 26.432C159.144 26.592 158.936 26.848 158.776 27.2C158.632 27.536 158.56 28 158.56 28.592V35H153.136V28.448C153.136 27.632 153.008 27.056 152.752 26.72C152.496 26.368 152.136 26.192 151.672 26.192C151.352 26.192 151.064 26.272 150.808 26.432C150.552 26.592 150.344 26.848 150.184 27.2C150.04 27.536 149.968 28 149.968 28.592V35H144.544V21.872H149.704V25.64L148.648 24.584C149.144 23.592 149.808 22.856 150.64 22.376C151.472 21.88 152.4 21.632 153.424 21.632C154.576 21.632 155.592 21.936 156.472 22.544C157.368 23.136 157.968 24.08 158.272 25.376L156.616 25.112C157.096 24.024 157.792 23.176 158.704 22.568C159.632 21.944 160.704 21.632 161.92 21.632ZM178.265 35.24C177.129 35.24 176.185 35 175.433 34.52C174.697 34.024 174.153 33.28 173.801 32.288C173.449 31.28 173.273 30 173.273 28.448C173.273 26.864 173.433 25.576 173.753 24.584C174.089 23.576 174.625 22.832 175.361 22.352C176.097 21.872 177.065 21.632 178.265 21.632C179.417 21.632 180.473 21.912 181.433 22.472C182.393 23.016 183.161 23.8 183.737 24.824C184.313 25.832 184.601 27.04 184.601 28.448C184.601 29.856 184.313 31.072 183.737 32.096C183.161 33.104 182.393 33.88 181.433 34.424C180.473 34.968 179.417 35.24 178.265 35.24ZM169.505 39.656V21.872H174.665V23.648L174.689 28.448L174.929 33.248V39.656H169.505ZM176.969 31.016C177.369 31.016 177.729 30.92 178.049 30.728C178.369 30.536 178.625 30.248 178.817 29.864C179.009 29.48 179.105 29.008 179.105 28.448C179.105 27.872 179.009 27.392 178.817 27.008C178.625 26.624 178.369 26.336 178.049 26.144C177.729 25.952 177.369 25.856 176.969 25.856C176.569 25.856 176.209 25.952 175.889 26.144C175.569 26.336 175.313 26.624 175.121 27.008C174.929 27.392 174.833 27.872 174.833 28.448C174.833 29.008 174.929 29.48 175.121 29.864C175.313 30.248 175.569 30.536 175.889 30.728C176.209 30.92 176.569 31.016 176.969 31.016ZM186.309 35V17.192H191.733V35H186.309ZM194.138 35V21.872H199.562V35H194.138ZM196.85 20.816C195.858 20.816 195.066 20.552 194.474 20.024C193.882 19.496 193.586 18.84 193.586 18.056C193.586 17.272 193.882 16.616 194.474 16.088C195.066 15.56 195.858 15.296 196.85 15.296C197.842 15.296 198.634 15.544 199.226 16.04C199.818 16.536 200.114 17.176 200.114 17.96C200.114 18.792 199.818 19.48 199.226 20.024C198.634 20.552 197.842 20.816 196.85 20.816ZM209.91 35V32.672L209.526 32.048V27.632C209.526 26.992 209.326 26.504 208.926 26.168C208.542 25.832 207.91 25.664 207.03 25.664C206.438 25.664 205.838 25.76 205.23 25.952C204.622 26.128 204.102 26.376 203.67 26.696L201.942 23.12C202.71 22.64 203.63 22.272 204.702 22.016C205.774 21.76 206.822 21.632 207.846 21.632C210.102 21.632 211.846 22.136 213.078 23.144C214.326 24.152 214.95 25.752 214.95 27.944V35H209.91ZM206.19 35.24C205.118 35.24 204.222 35.056 203.502 34.688C202.782 34.32 202.238 33.832 201.87 33.224C201.502 32.6 201.318 31.912 201.318 31.16C201.318 30.312 201.534 29.592 201.966 29C202.398 28.408 203.054 27.96 203.934 27.656C204.83 27.352 205.958 27.2 207.318 27.2H210.054V29.816H208.182C207.606 29.816 207.182 29.912 206.91 30.104C206.654 30.28 206.526 30.552 206.526 30.92C206.526 31.224 206.638 31.48 206.862 31.688C207.102 31.88 207.422 31.976 207.822 31.976C208.19 31.976 208.526 31.88 208.83 31.688C209.15 31.48 209.382 31.16 209.526 30.728L210.222 32.336C210.014 33.312 209.574 34.04 208.902 34.52C208.23 35 207.326 35.24 206.19 35.24ZM226.414 21.632C227.422 21.632 228.334 21.84 229.15 22.256C229.966 22.656 230.606 23.288 231.07 24.152C231.55 25.016 231.79 26.136 231.79 27.512V35H226.366V28.448C226.366 27.632 226.222 27.056 225.934 26.72C225.646 26.368 225.254 26.192 224.758 26.192C224.39 26.192 224.046 26.28 223.726 26.456C223.422 26.616 223.174 26.888 222.982 27.272C222.806 27.656 222.718 28.176 222.718 28.832V35H217.294V21.872H222.454V25.712L221.422 24.608C221.934 23.616 222.622 22.872 223.486 22.376C224.366 21.88 225.342 21.632 226.414 21.632ZM241.436 35.24C239.932 35.24 238.596 34.952 237.428 34.376C236.26 33.8 235.34 33 234.668 31.976C234.012 30.936 233.684 29.752 233.684 28.424C233.684 27.096 234.012 25.92 234.668 24.896C235.34 23.872 236.26 23.072 237.428 22.496C238.596 21.92 239.932 21.632 241.436 21.632C243.036 21.632 244.404 21.976 245.54 22.664C246.676 23.352 247.46 24.304 247.892 25.52L243.692 27.584C243.42 26.976 243.084 26.536 242.684 26.264C242.3 25.992 241.876 25.856 241.412 25.856C241.012 25.856 240.636 25.952 240.284 26.144C239.948 26.336 239.676 26.624 239.468 27.008C239.276 27.376 239.18 27.848 239.18 28.424C239.18 29 239.276 29.48 239.468 29.864C239.676 30.248 239.948 30.536 240.284 30.728C240.636 30.92 241.012 31.016 241.412 31.016C241.876 31.016 242.3 30.88 242.684 30.608C243.084 30.336 243.42 29.896 243.692 29.288L247.892 31.352C247.46 32.568 246.676 33.52 245.54 34.208C244.404 34.896 243.036 35.24 241.436 35.24ZM256.276 35.24C254.676 35.24 253.276 34.944 252.076 34.352C250.892 33.76 249.972 32.952 249.316 31.928C248.66 30.888 248.332 29.72 248.332 28.424C248.332 27.096 248.652 25.92 249.292 24.896C249.948 23.872 250.836 23.072 251.956 22.496C253.092 21.92 254.364 21.632 255.772 21.632C257.068 21.632 258.26 21.888 259.348 22.4C260.452 22.912 261.332 23.672 261.988 24.68C262.66 25.688 262.996 26.936 262.996 28.424C262.996 28.616 262.988 28.832 262.972 29.072C262.956 29.296 262.94 29.504 262.924 29.696H252.82V27.08H260.044L258.004 27.776C258.004 27.264 257.908 26.832 257.716 26.48C257.54 26.112 257.292 25.832 256.972 25.64C256.652 25.432 256.268 25.328 255.82 25.328C255.372 25.328 254.98 25.432 254.644 25.64C254.324 25.832 254.076 26.112 253.9 26.48C253.724 26.832 253.636 27.264 253.636 27.776V28.592C253.636 29.152 253.748 29.632 253.972 30.032C254.196 30.432 254.516 30.736 254.932 30.944C255.348 31.136 255.852 31.232 256.444 31.232C257.052 31.232 257.548 31.152 257.932 30.992C258.332 30.832 258.748 30.592 259.18 30.272L262.012 33.128C261.372 33.816 260.58 34.344 259.636 34.712C258.708 35.064 257.588 35.24 256.276 35.24Z" fill="white"/>
<path fill-rule="evenodd" clip-rule="evenodd" d="M26.5753 0C33.53 0 39.8606 2.67313 44.5965 7.0465C42.1505 8.92343 39.677 11.0964 37.2311 13.579C36.818 13.9989 36.4188 14.4257 36.031 14.8594C33.4474 12.7691 30.157 11.5185 26.573 11.5185C18.2599 11.5185 11.5185 18.2599 11.5185 26.573C11.5185 34.8883 18.2599 41.6274 26.573 41.6274C33.4428 41.6274 39.2365 37.0268 41.0423 30.7375H52.8178C50.8193 43.4355 39.8308 53.1459 26.5707 53.1459C11.8948 53.1459 0 41.2488 0 26.573C0 11.8971 11.8971 0.00229453 26.5707 0.00229453L26.5753 0ZM48.0291 10.8944C50.4682 14.2261 52.1524 18.1497 52.8224 22.4084H41.0469C40.8289 21.6443 40.5489 20.9055 40.2185 20.1965L41.0423 19.1524C43.5135 15.9929 45.831 13.228 48.0314 10.8944H48.0291Z" fill="#6FDA44"/>
<path d="M26.8188 22.9499C28.6474 22.9499 30.1298 21.4675 30.1298 19.6389C30.1298 17.8103 28.6474 16.3279 26.8188 16.3279C24.9902 16.3279 23.5078 17.8103 23.5078 19.6389C23.5078 21.4675 24.9902 22.9499 26.8188 22.9499Z" fill="#6FDA44"/>
<path d="M52.2655 3.27423L53.2062 4.62112C49.3491 7.52829 45.0652 11.9957 40.3385 18.0327C35.6117 24.0787 32.0116 29.7187 29.5289 34.9617L27.5258 36.3178C25.8646 37.4719 24.738 38.3209 24.1483 38.8853C23.9073 38.0364 23.4003 36.6505 22.6063 34.7231L21.8492 32.9609C20.7684 30.4415 19.7634 28.576 18.8295 27.3668C17.9071 26.1576 16.8631 25.3545 15.709 24.9575C17.657 22.9085 19.4376 21.8829 21.0621 21.8829C22.4457 21.8829 23.9877 23.7667 25.6856 27.532L26.5162 29.425C29.5611 24.2852 33.4755 19.2901 38.2482 14.444C43.03 9.59796 47.6993 5.86935 52.2586 3.27653L52.2655 3.27423Z" fill="#6FDA44"/>
</svg>
