<svg width="48" height="48" viewBox="0 0 48 48" fill="none" xmlns="http://www.w3.org/2000/svg">
<path d="M22.2595 31.7598C21.7595 31.7598 21.2595 31.4998 20.9795 31.0398C20.5595 30.3398 20.7795 29.3998 21.4995 28.9798L23.2795 27.9198V25.7598C23.2795 24.9398 23.9595 24.2598 24.7795 24.2598C25.5995 24.2598 26.2795 24.9398 26.2795 25.7598V28.7598C26.2795 29.2798 25.9995 29.7798 25.5595 30.0398L23.0595 31.5398C22.7795 31.6798 22.5195 31.7598 22.2595 31.7598Z" fill="#6FDA44"/>
<path opacity="0.4" d="M43.7008 22.8198L42.4608 36.3798C42.0408 40.3798 40.4008 44.4598 31.6008 44.4598H16.3608C7.56078 44.4598 5.92078 40.3798 5.52078 36.3998L4.30078 23.3798C4.32078 23.3998 4.34078 23.4198 4.38078 23.4398C5.06078 23.8798 5.72078 24.3198 6.44078 24.7198C6.72078 24.8998 7.02078 25.0598 7.32078 25.2198C9.58078 26.4598 12.0008 27.4398 14.5008 28.1198C15.5008 28.4198 16.5208 28.6398 17.5608 28.8198C17.9608 32.0198 20.7008 34.4998 24.0008 34.4998C27.3408 34.4998 30.1008 31.9598 30.4608 28.6998V28.6798C31.4808 28.4798 32.5008 28.2198 33.5008 27.9198C36.0008 27.1398 38.4208 26.0998 40.6808 24.7798C40.8008 24.7198 40.9008 24.6598 40.9808 24.5998C41.9008 24.0998 42.7808 23.5198 43.6208 22.9198C43.6608 22.8998 43.6808 22.8598 43.7008 22.8198Z" fill="#6FDA44"/>
<path d="M42.1801 13.96C40.4801 12.08 37.6601 11.14 33.5201 11.14H33.0401V11.06C33.0401 7.70004 33.0401 3.54004 25.5201 3.54004H22.4801C14.9601 3.54004 14.9601 7.70004 14.9601 11.06V11.14H14.4801C10.3401 11.14 7.50007 12.08 5.82008 13.96C3.84008 16.18 3.90007 19.12 4.10007 21.14L4.12007 21.28L4.30008 23.38C4.32008 23.4 4.36007 23.42 4.40007 23.44C5.08008 23.88 5.74007 24.32 6.46007 24.72C6.74007 24.9 7.04008 25.06 7.34008 25.22C9.60007 26.46 12.0201 27.44 14.5001 28.12C14.5601 33.3 18.8001 37.5 24.0001 37.5C29.2401 37.5 33.5001 33.24 33.5001 28V27.92C36.0201 27.16 38.4401 26.1 40.7001 24.78C40.8201 24.72 40.9001 24.66 41.0001 24.6C41.9201 24.1 42.8001 23.52 43.6401 22.92C43.6601 22.9 43.7001 22.86 43.7201 22.82L43.8001 22.1L43.9001 21.16C43.9201 21.04 43.9201 20.94 43.9401 20.8C44.1001 18.8 44.0601 16.04 42.1801 13.96ZM17.8201 11.06C17.8201 7.66004 17.8201 6.38004 22.4801 6.38004H25.5201C30.1801 6.38004 30.1801 7.66004 30.1801 11.06V11.14H17.8201V11.06ZM24.0001 34.5C20.7001 34.5 17.9601 32.02 17.5601 28.82C17.5201 28.56 17.5001 28.28 17.5001 28C17.5001 24.42 20.4201 21.5 24.0001 21.5C27.5801 21.5 30.5001 24.42 30.5001 28C30.5001 28.24 30.4801 28.46 30.4601 28.68V28.7C30.1001 31.96 27.3401 34.5 24.0001 34.5Z" fill="#6FDA44"/>
</svg>
